<?xml version="1.0" standalone="no"?>
<!DOCTYPE svg PUBLIC "-//W3C//DTD SVG 1.1//EN" "http://www.w3.org/Graphics/SVG/1.1/DTD/svg11.dtd" >
<svg xmlns="http://www.w3.org/2000/svg" xmlns:xlink="http://www.w3.org/1999/xlink" version="1.1">
<metadata></metadata>
<defs>
<font id="baronregular" horiz-adv-x="1144" >
<font-face units-per-em="2048" ascent="1536" descent="-512" />
<missing-glyph horiz-adv-x="706" />
<glyph horiz-adv-x="0" />
<glyph unicode="&#xd;" horiz-adv-x="681" />
<glyph unicode=" "  horiz-adv-x="706" />
<glyph unicode="&#x09;" horiz-adv-x="706" />
<glyph unicode="&#xa0;" horiz-adv-x="706" />
<glyph unicode="!" horiz-adv-x="565" d="M145 118.5q0 55.5 40.5 96.5t95.5 41q57 0 97 -41t40 -96.5t-40 -95t-97 -39.5q-55 0 -95.5 39.5t-40.5 95zM162 418v1016h239v-1016h-239z" />
<glyph unicode="&#x22;" horiz-adv-x="679" d="M63 977v457h218v-457h-218zM391 977v457h217v-457h-217z" />
<glyph unicode="#" horiz-adv-x="1398" d="M8 297l60 209h178l102 366h-180l57 203h181l100 359h237l-100 -359h240l100 359h238l-101 -359h180l-57 -203h-180l-102 -366h180l-60 -209h-180l-84 -299h-237l84 299h-240l-84 -299h-236l82 299h-178zM473 500h256l107 379h-256z" />
<glyph unicode="$" horiz-adv-x="1112" d="M111 403h239q2 -66 38 -107.5t95 -59.5v372q-80 12 -139 41q-233 109 -233 367q0 170 102 283.5t256 142.5v166h178v-166q154 -27 253 -136.5t101 -267.5h-237q-6 131 -131 162v-373q72 -12 139 -41q234 -107 234 -383q0 -178 -101.5 -283.5t-257.5 -127.5v-144h-178v148 q-160 25 -258 131t-100 276zM350 1016q0 -129 133 -172v356q-133 -39 -133 -184zM633 233q135 33 135 170q0 150 -135 189v-359z" />
<glyph unicode="%" horiz-adv-x="1359" d="M0 4l1112 1430h227l-1112 -1430h-227zM43 1139q0 121 87 208t208 87t208 -87t87 -208t-87 -208t-208 -87t-208 87t-87 208zM213 1138.5q0 -53.5 37 -89t88 -35.5t88 35.5t37 89t-37 90.5t-88 37t-88 -37t-37 -90.5zM698 301q0 125 87 212t210 87q125 0 212 -87t87 -212 q0 -123 -87 -210t-212 -87q-123 0 -210 87t-87 210zM868 301q0 -51 37 -89t90.5 -38t91 37t37.5 90t-37.5 91t-91 38t-90.5 -38t-37 -91z" />
<glyph unicode="&#x26;" horiz-adv-x="1337" d="M87.5 510q25.5 174 170.5 301q-127 106 -127 274q0 147 105.5 253t252.5 106q150 0 254.5 -105.5t104.5 -253.5q0 -98 -48 -180t-130 -131l217 -225v276h381v-215h-181v-123q0 -35 -18 -100l219 -217l-170 -170l-170 170q-96 -123 -250.5 -162t-301 10.5t-230.5 165.5 q-104 152 -78.5 326zM331.5 513.5q-24.5 -89.5 37.5 -179.5q68 -92 197.5 -96.5t211.5 102.5l-332 322q-90 -59 -114.5 -148.5zM358 1085.5q0 -53.5 39 -93.5t92.5 -40t92.5 40t39 93.5t-39 92.5t-92.5 39t-92.5 -39t-39 -92.5z" />
<glyph unicode="'" horiz-adv-x="339" d="M63 977v457h218v-457h-218z" />
<glyph unicode="(" horiz-adv-x="636" d="M125 721q0 365 184 711h277q-223 -348 -224 -709q0 -383 222 -723h-277q-182 344 -182 721z" />
<glyph unicode=")" horiz-adv-x="630" d="M49 0q223 348 223 709q0 154 -41 313q-53 213 -180 410h277q88 -168 135 -351q47 -184 47 -368q0 -367 -184 -713h-277z" />
<glyph unicode="*" horiz-adv-x="784" d="M78 1069v105h186l-145 145l74 74l145 -146v187h104v-187l144 146l73 -74l-145 -145h186v-105h-186l145 -145l-73 -72l-144 143v-186h-104v186l-145 -143l-74 72l145 145h-186z" />
<glyph unicode="+" horiz-adv-x="956" d="M55 612v207h297v311h209v-311h311v-207h-311v-315h-209v315h-297z" />
<glyph unicode="," horiz-adv-x="380" d="M41 110.5q0 53.5 37 90.5t90 37q113 0 137.5 -90.5t-21.5 -194t-116 -146.5v177q-53 0 -90 36.5t-37 90z" />
<glyph unicode="-" horiz-adv-x="907" d="M84 612v217h721v-217h-721z" />
<glyph unicode="." horiz-adv-x="368" d="M53 114.5q0 53.5 38 92.5t89 39q55 0 93 -39t38 -92.5t-37.5 -90t-93.5 -36.5q-53 0 -90 36.5t-37 90z" />
<glyph unicode="/" horiz-adv-x="925" d="M0 -2l666 1436h243l-671 -1436h-238z" />
<glyph unicode="0" horiz-adv-x="1157" d="M160 399v637q0 113 46 200t119.5 132t163 66.5t178.5 0t162.5 -66.5t119.5 -132t46 -200v-637q0 -113 -46 -199.5t-119.5 -131.5t-162.5 -66.5t-178.5 0t-163 66.5t-119.5 132t-46 199zM399 387q0 -84 55.5 -131t123 -47t123 48t55.5 130v668q0 82 -55.5 129t-123 47 t-123 -47t-55.5 -129v-668z" />
<glyph unicode="1" horiz-adv-x="679" d="M-10 1255l329 179h203v-1434h-239v1161l-213 -78z" />
<glyph unicode="2" horiz-adv-x="1003" d="M74 0v217l514 707q80 121 42 204.5t-138 83.5q-72 0 -125.5 -43t-53.5 -129h-225q0 182 102.5 297t301.5 115q145 0 259.5 -91t136 -234.5t-96.5 -319.5l-426 -567h544v-240h-835z" />
<glyph unicode="3" horiz-adv-x="1009" d="M59 406h236q0 -80 60.5 -130.5t138.5 -50.5q199 0 198 205q0 88 -53 151.5t-156 63.5h-198l301 557h-480v232h844l-321 -598q143 -33 224 -139.5t81 -276.5q0 -219 -126 -325.5t-314 -106.5q-180 0 -307.5 115.5t-127.5 302.5z" />
<glyph unicode="4" horiz-adv-x="1054" d="M66 434v225l591 775h238v-1434h-238v434h-591zM317 643h340v428z" />
<glyph unicode="5" horiz-adv-x="1026" d="M88 403h238q0 -90 50 -135t130 -45q82 0 141.5 51.5t59.5 147.5q0 240 -201 240h-408v772h770v-226h-530v-323h168q221 0 329.5 -121t108.5 -342q0 -199 -129 -317.5t-309 -118.5q-182 0 -300 109.5t-118 307.5z" />
<glyph unicode="6" horiz-adv-x="966" d="M84 551l307 883h254l-225 -639q39 20 106 20q164 0 264.5 -124t100.5 -290q0 -174 -123 -295.5t-295 -121.5q-221 0 -335.5 174t-53.5 393zM291 399q0 -76 54 -131t130 -55q78 0 132.5 55.5t54.5 131t-54.5 131t-132.5 55.5q-55 0 -101 -32t-69 -81q-14 -23 -14 -74z" />
<glyph unicode="7" horiz-adv-x="892" d="M37 1200v232h856l-539 -1432h-254l453 1200h-516z" />
<glyph unicode="8" horiz-adv-x="997" d="M76 420q0 84 43 166t108 133q-68 53 -109.5 133t-41.5 166q0 117 46 209t119.5 140t164 69.5t179.5 -1t162.5 -69.5t119.5 -139t46 -209q0 -88 -42.5 -170t-116.5 -129q160 -121 159 -299q0 -117 -46 -210t-119.5 -140t-162.5 -70t-179.5 -1.5t-164 70t-119.5 140.5 t-46 211zM303 1018q0 -80 56.5 -136.5t134.5 -56.5q80 0 136 56.5t56 136.5q0 94 -59.5 148.5t-132 55.5t-132 -53.5t-59.5 -150.5zM309 420q0 -94 58.5 -147.5t127 -53.5t127 53.5t58.5 147.5q0 78 -54.5 131t-131.5 53q-76 0 -130.5 -54t-54.5 -130z" />
<glyph unicode="9" horiz-adv-x="995" d="M66 1032q0 174 122.5 296t294.5 122q221 0 336 -174t53 -393l-307 -883h-254l226 639q-39 -20 -107 -21q-164 0 -264 124t-100 290zM295 1034q0 -76 55.5 -131t130.5 -55q55 0 101 32t69 81q14 23 15 73q0 76 -54.5 131.5t-130 55.5t-131 -55.5t-55.5 -131.5z" />
<glyph unicode=":" horiz-adv-x="368" d="M53 114.5q0 53.5 38 92.5t89 39q55 0 93 -39t38 -92.5t-37.5 -90t-93.5 -36.5q-53 0 -90 36.5t-37 90zM53 698q0 53 38 92t89 39q55 0 93 -38.5t38 -92t-37.5 -90.5t-93.5 -37q-53 0 -90 38t-37 89z" />
<glyph unicode=";" horiz-adv-x="370" d="M41 110.5q0 53.5 37 90.5t90 37q113 0 137.5 -90.5t-21.5 -194t-116 -146.5v177q-53 0 -90 36.5t-37 90zM53 698q0 53 38 92t89 39q55 0 93 -38.5t38 -92t-37.5 -90.5t-93.5 -37q-53 0 -90 38t-37 89z" />
<glyph unicode="&#x3c;" horiz-adv-x="714" d="M43 700l451 478l137 -142l-318 -336l318 -331l-137 -144z" />
<glyph unicode="=" horiz-adv-x="874" d="M76 309v207h717v-207h-717zM76 674v205h717v-205h-717z" />
<glyph unicode="&#x3e;" horiz-adv-x="708" d="M78 369l317 331l-317 336l137 142l451 -478l-451 -475z" />
<glyph unicode="?" horiz-adv-x="1003" d="M59 1059q0 170 121 282.5t297 112.5q188 0 309 -112.5t121 -319.5q0 -137 -94 -241.5t-238 -131.5v-252h-217v432q168 -10 239 49.5t71 143.5q0 193 -191 192q-76 0 -128 -42t-52 -113h-238zM336 125q0 82 68.5 116.5t137 1t68.5 -117.5q0 -82 -68.5 -117t-137 -1 t-68.5 118z" />
<glyph unicode="@" horiz-adv-x="1832" d="M-20 717q0 307 204.5 522t532.5 215q309 0 523 -200.5t214 -536.5v-359h-737q-150 0 -254.5 104.5t-104.5 254.5q0 147 104.5 252.5t254.5 105.5q147 0 252.5 -105.5t105.5 -252.5q0 -57 -20 -119h159v119q0 231 -145 366.5t-352 135.5q-233 0 -366.5 -146.5 t-133.5 -355.5t135 -355.5t365 -146.5h717v-231h-717q-330 0 -533.5 214t-203.5 519zM584 717q0 -55 39 -94t94 -39t94 39t39 94t-39 94t-94 39t-94 -39t-39 -94z" />
<glyph unicode="A" d="M0 0l571 1475l574 -1475h-258l-64 166h-504l-61 -166h-258zM397 373h348l-174 497z" />
<glyph unicode="B" horiz-adv-x="1234" d="M162 0v1434h477h27.5t66.5 -7.5t94 -20.5t100.5 -43t94.5 -72t66.5 -109.5t27.5 -151.5q0 -131 -68.5 -209.5t-170.5 -105.5q76 -16 130 -53t78.5 -78t37 -81t12.5 -65l2 -26q0 -111 -44 -193t-101.5 -123t-136.5 -64.5t-125 -27.5t-91 -4h-477zM399 238h240 q258 0 258 180q0 86 -64.5 130t-127.5 46l-66 2h-240v-358zM399 836h240q10 0 25.5 1t56.5 10t72.5 26.5t57.5 54.5t26 86q0 86 -59.5 131t-119.5 47l-59 4h-240v-360z" />
<glyph unicode="C" horiz-adv-x="1421" d="M113 717q0 324 201.5 530.5t516.5 206.5q299 0 506 -211l-168 -168q-139 139 -338 139q-217 0 -346 -138t-129 -359q0 -225 136 -361.5t339 -136.5q199 0 338 139l168 -170q-208 -208 -503 -208h-3q-305 0 -511.5 203.5t-206.5 533.5z" />
<glyph unicode="D" horiz-adv-x="1355" d="M162 0v1434h239q838 0 838 -717q0 -147 -37 -265t-102.5 -194t-145.5 -129t-179 -79.5t-187 -38t-187 -11.5h-239zM401 233q12 -2 34 -4q9 -1 24 -1q23 0 59 2q62 3 118 14.5t125.5 45.5t119 84t83 139t33.5 204q0 117 -32.5 207t-85 140t-116 84t-128 43t-116.5 13 q-26 2 -47.5 2t-37.5 -2l-33 -4v-967z" />
<glyph unicode="E" horiz-adv-x="1204" d="M162 0v1434h956v-240h-717v-358h596v-238h-596v-358h717v-240h-956z" />
<glyph unicode="F" horiz-adv-x="1187" d="M162 0v1434h956v-240h-717v-358h596v-238h-596v-598h-239z" />
<glyph unicode="G" horiz-adv-x="1583" d="M119 717q0 315 209 526t508 211t505 -211l-167 -168q-139 139 -338 139q-205 0 -341.5 -134t-136.5 -363q0 -250 133.5 -374t344.5 -124q217 0 358 162v207h-240v227h480v-821h-209l-13 135q-161 -149 -404 -149h-3q-299 0 -492.5 197.5t-193.5 539.5z" />
<glyph unicode="H" horiz-adv-x="1404" d="M166 0v1434h240v-594h595v594h240v-1434h-240v598h-595v-598h-240z" />
<glyph unicode="I" horiz-adv-x="716" d="M68 0v219h168v995h-160v220h559v-220h-160v-995h168v-219h-575z" />
<glyph unicode="J" horiz-adv-x="831" d="M70 0v240h180q51 0 88 18t53.5 44t26.5 52.5t12 44.5v19v799h-258v219h498v-1018q0 -117 -43 -203t-105.5 -126t-124 -62.5t-104.5 -24.5l-43 -2h-180z" />
<glyph unicode="K" horiz-adv-x="1323" d="M162 0v1434h239v-723l588 723h299l-592 -729l596 -705h-313l-442 545l-136 -152v-393h-239z" />
<glyph unicode="L" horiz-adv-x="1026" d="M162 0v1434h239v-1194h531v-240h-770z" />
<glyph unicode="M" horiz-adv-x="1875" d="M160 0v1436h243l545 -1117l522 1117h244v-1436h-239v881l-412 -881h-225l-439 899v-899h-239z" />
<glyph unicode="N" horiz-adv-x="1519" d="M162 0v1434h241l715 -1020v1020h238v-1434h-242l-713 1020v-1020h-239z" />
<glyph unicode="O" horiz-adv-x="1306" d="M117 921.5q0 219.5 156.5 376t375.5 156.5t376 -156.5t157 -376t-157 -376t-376 -156.5t-375.5 156.5t-156.5 376zM170 0v238h946v-238h-946zM354 921.5q0 -122.5 86 -208.5t209 -86t209 86t86 208.5t-86 209t-209 86.5t-209 -86.5t-86 -209z" />
<glyph unicode="P" horiz-adv-x="1193" d="M162 0v836h227l-227 358v240h477q10 0 27.5 -1t66.5 -9.5t94 -23t100.5 -46t94.5 -73.5t66.5 -110.5t27.5 -154.5q0 -117 -49 -203t-119.5 -126t-140.5 -62.5t-119 -24.5l-49 -2h-238v-598h-239zM446 1194l224 -356q209 27 209 178q0 80 -59.5 124t-119.5 48l-61 6h-193z " />
<glyph unicode="Q" horiz-adv-x="1683" d="M115 721q0 303 203.5 518t515 215t516 -215t204.5 -518q0 -244 -129 -428l154 -162l-174 -164l-148 154q-188 -139 -423 -139q-301 0 -510 213t-209 526zM354 721q0 -219 138.5 -359.5t341.5 -140.5q139 0 258 76l-650 715q-88 -125 -88 -291zM627 1167l628 -694 q58 105 58 248q0 201 -140.5 347t-338.5 146q-109 0 -207 -47z" />
<glyph unicode="R" horiz-adv-x="1253" d="M164 0v836h227l-227 358v240h477q10 0 27.5 -1t66.5 -9.5t95.5 -23t101.5 -46t94 -73.5t66.5 -110.5t27.5 -154.5q0 -90 -28.5 -162t-77.5 -117t-99.5 -71.5t-109.5 -42.5l389 -623h-281l-372 598h-138v-598h-239zM449 1194l223 -356q43 4 84 16t83 54t42 108 q0 80 -59.5 124t-121.5 48l-59 6h-192z" />
<glyph unicode="S" horiz-adv-x="1112" d="M111 397h239q2 -84 62.5 -131t146.5 -47t147.5 51.5t61.5 132.5q0 86 -64.5 140.5t-144.5 58.5q-111 0 -215 47q-233 109 -233 367q0 197 133 317.5t315 120.5q188 0 314 -115.5t128 -296.5h-237q-2 84 -60.5 128t-144.5 44q-90 0 -149.5 -51t-59.5 -147q0 -84 61.5 -133 t147.5 -49q111 0 213 -48q113 -51 173.5 -152.5t60.5 -230.5q0 -197 -131.5 -310t-315.5 -113q-195 4 -320.5 113.5t-127.5 303.5z" />
<glyph unicode="T" horiz-adv-x="917" d="M41 1214v220h840v-220h-301v-1214h-238v1214h-301z" />
<glyph unicode="U" horiz-adv-x="1515" d="M162 575v859h1192v-859q0 -147 -72 -290q-74 -147 -209 -226t-315 -79t-315.5 78.5t-209.5 226.5q-72 143 -71 290zM399 575q2 -98 52 -190q88 -166 307 -166q223 0 307 166q51 96 51 193v616h-717v-619z" />
<glyph unicode="V" horiz-adv-x="1138" d="M0 1434h1145l-572 -1493zM352 1196l221 -610l220 610h-441z" />
<glyph unicode="W" horiz-adv-x="2050" d="M4 1434h258l313 -846l316 846h266l316 -846l315 846h258l-573 -1491l-449 1179l-449 -1179z" />
<glyph unicode="X" horiz-adv-x="1380" d="M35 0l512 717l-512 717h293l366 -512l365 512h293l-512 -717l512 -717h-293l-365 512l-366 -512h-293z" />
<glyph unicode="Y" horiz-adv-x="1320" d="M0 1434h293l366 -512l365 512h293l-539 -756v-678h-239v678z" />
<glyph unicode="Z" horiz-adv-x="972" d="M66 1194v240h833l-477 -1194h479v-240h-833l479 1194h-481z" />
<glyph unicode="[" horiz-adv-x="704" d="M160 0v1434h477v-240h-238v-954h238v-240h-477z" />
<glyph unicode="\" horiz-adv-x="929" d="M0 1434h244l665 -1436h-243z" />
<glyph unicode="]" horiz-adv-x="720" d="M82 0v240h240v954h-240v240h477v-1434h-477z" />
<glyph unicode="^" horiz-adv-x="1216" d="M0 1016l440 418l441 -418l-133 -125l-308 293l-307 -293z" />
<glyph unicode="_" horiz-adv-x="1103" d="M82 -2h946v-197h-946v197z" />
<glyph unicode="`" horiz-adv-x="542" d="M39 1325l108 174l367 -213l-98 -166z" />
<glyph unicode="a" d="M0 0l571 1475l574 -1475h-258l-64 166h-504l-61 -166h-258zM397 373h348l-174 497z" />
<glyph unicode="b" horiz-adv-x="1234" d="M162 0v1432h477q18 0 51 -1t115 -21.5t145.5 -58.5t114.5 -121t51 -200q0 -131 -68.5 -209.5t-170.5 -105.5q76 -16 130 -53t78.5 -78t37 -81t12.5 -65l2 -26q0 -111 -44 -193t-101.5 -123t-136.5 -64.5t-125 -27.5t-91 -4h-477zM399 238h240q258 0 258 180 q0 86 -64.5 130t-127.5 46l-66 2h-240v-358zM399 836h240q10 0 25.5 1t56.5 10t72.5 26.5t57.5 54.5t26 86q0 53 -25 92t-59.5 55.5t-69.5 24.5t-59 8h-25h-240v-358z" />
<glyph unicode="c" horiz-adv-x="1421" d="M113 717q0 324 201.5 530.5t516.5 206.5q299 0 506 -211l-168 -168q-139 139 -338 139q-217 0 -346 -138t-129 -359q0 -225 136 -361.5t339 -136.5q199 0 338 139l168 -170q-208 -208 -503 -208h-3q-305 0 -511.5 203.5t-206.5 533.5z" />
<glyph unicode="d" horiz-adv-x="1355" d="M162 0v1434h239q838 0 838 -717q0 -147 -37 -265t-102.5 -194t-145.5 -129t-179 -79.5t-187 -38t-187 -11.5h-239zM401 233q12 -2 34 -4q9 -1 24 -1q23 0 59 2q62 3 118 14.5t125.5 45.5t119 84t83 139t33.5 204q0 117 -32.5 207t-85 140t-116 84t-128 43t-116.5 13 q-26 2 -47.5 2t-37.5 -2l-33 -4v-967z" />
<glyph unicode="e" horiz-adv-x="1204" d="M162 0v1434h956v-240h-717v-358h596v-238h-596v-358h717v-240h-956z" />
<glyph unicode="f" horiz-adv-x="1187" d="M162 0v1434h956v-240h-717v-358h596v-238h-596v-598h-239z" />
<glyph unicode="g" horiz-adv-x="1583" d="M119 717q0 315 209 526t508 211t505 -211l-167 -168q-139 139 -338 139q-205 0 -341.5 -134t-136.5 -363q0 -250 133.5 -374t344.5 -124q217 0 358 162v223h-381v211h621v-817h-209l-13 131q-161 -149 -404 -149h-3q-299 0 -492.5 197.5t-193.5 539.5z" />
<glyph unicode="h" horiz-adv-x="1404" d="M166 0v1434h240v-594h595v594h240v-1434h-240v598h-595v-598h-240z" />
<glyph unicode="i" horiz-adv-x="573" d="M168 0v1434h240v-1434h-240z" />
<glyph unicode="j" horiz-adv-x="831" d="M70 0v240h180q51 0 88 18t53.5 44t26.5 52.5t12 44.5v19v1018h240v-1018q0 -117 -43 -203t-105.5 -126t-124 -62.5t-104.5 -24.5l-43 -2h-180z" />
<glyph unicode="k" horiz-adv-x="1323" d="M162 0v1434h239v-723l588 723h299l-592 -729l596 -705h-313l-442 545l-136 -152v-393h-239z" />
<glyph unicode="l" horiz-adv-x="1026" d="M162 0v1434h239v-1194h531v-240h-770z" />
<glyph unicode="m" horiz-adv-x="1875" d="M160 0v1436h243l545 -1117l522 1117h244v-1436h-239v881l-412 -881h-225l-439 899v-899h-239z" />
<glyph unicode="n" horiz-adv-x="1519" d="M162 0v1434h241l715 -1020v1020h238v-1434h-242l-713 1020v-1020h-239z" />
<glyph unicode="o" horiz-adv-x="1632" d="M102 717q0 137 47.5 269t132.5 235.5t223 167t308 63.5t307 -63.5t222 -167t131.5 -235.5t46.5 -269t-46.5 -269.5t-130 -235.5t-222 -166.5t-308.5 -63.5q-172 0 -310 63.5t-223 166.5t-131.5 235.5t-46.5 269.5zM348 716q0 -95 30 -185.5t86 -161t146 -113.5t203 -43 q127 0 227.5 55.5t152.5 144.5q51 89 75 195q12 53 12 107q0 53 -12 107q-24 108 -75.5 197t-152 144.5t-227.5 55.5q-113 0 -203 -43t-146 -114t-86 -161t-30 -185z" />
<glyph unicode="p" horiz-adv-x="1187" d="M162 -4v1438h479q10 0 27.5 -1t66.5 -9.5t95.5 -23t101.5 -46t94 -73.5t66.5 -111.5t27.5 -155.5t-26.5 -156t-68.5 -111.5t-93 -73.5t-102.5 -46.5t-93.5 -22.5t-68 -10h-27h-240v-598h-239zM401 834h240q10 0 26.5 1t57.5 11t72.5 26.5t57.5 53.5t26 88q0 80 -59.5 125 t-121.5 49l-59 6h-240v-360z" />
<glyph unicode="q" horiz-adv-x="1693" d="M111 717q0 307 196.5 522t519.5 215q313 0 515 -217t202 -520q0 -252 -131 -434l154 -154l-168 -168l-154 152q-184 -133 -418 -133q-315 0 -515.5 215t-200.5 522zM350 717q0 -205 133 -352.5t344 -147.5q129 0 246 70l-153 151l170 170l151 -151q66 111 66 260 q0 209 -127 353t-353 144q-217 0 -347 -145t-130 -352z" />
<glyph unicode="r" horiz-adv-x="1226" d="M160 0v1434h477q10 0 27.5 -1t66.5 -9.5t95 -23t101.5 -46t94.5 -73.5t66.5 -110.5t27.5 -154.5q0 -281 -276 -381l293 -635h-265l-274 598h-195v-598h-239zM399 836h238q10 0 26.5 1t57.5 11t72.5 26.5t57.5 53.5t26 88q0 80 -59.5 124t-121.5 48l-59 6h-238v-358z" />
<glyph unicode="s" horiz-adv-x="1112" d="M111 397h239q2 -84 62.5 -131t146.5 -47t147.5 50t61.5 132q0 86 -65.5 141.5t-143.5 59.5q-111 0 -215 47q-233 109 -233 367q0 197 133 317.5t315 120.5q188 0 314 -115.5t128 -296.5h-237q-2 84 -60.5 128t-144.5 44q-90 0 -149.5 -51t-59.5 -147q0 -84 61.5 -133 t147.5 -49q111 0 213 -48q113 -51 173.5 -153.5t60.5 -231.5q0 -197 -131.5 -309t-315.5 -112q-195 4 -320.5 113.5t-127.5 303.5z" />
<glyph unicode="t" horiz-adv-x="917" d="M41 1214v220h840v-220h-301v-1214h-238v1214h-301z" />
<glyph unicode="u" horiz-adv-x="1398" d="M162 459v975h239v-975q8 -119 92.5 -179.5t205 -60.5t209.5 63.5t89 176.5v975h240v-975q0 -223 -151.5 -351t-387.5 -128q-227 0 -381.5 132t-154.5 347z" />
<glyph unicode="v" horiz-adv-x="1146" d="M0 1434h258l313 -846l316 846h258l-574 -1471z" />
<glyph unicode="w" horiz-adv-x="2050" d="M4 1434h258l313 -846l316 846h266l316 -846l315 846h258l-573 -1491l-449 1179l-449 -1179z" />
<glyph unicode="x" horiz-adv-x="1380" d="M35 0l512 717l-512 717h293l366 -512l365 512h293l-512 -717l512 -717h-293l-365 512l-366 -512h-293z" />
<glyph unicode="y" horiz-adv-x="1320" d="M0 1434h293l366 -512l365 512h293l-539 -756v-678h-239v678z" />
<glyph unicode="z" horiz-adv-x="1193" d="M0 0l735 1194h-674v240h1100l-733 -1194h733v-240h-1161z" />
<glyph unicode="{" horiz-adv-x="708" d="M-31 717l267 133v584h399v-240h-160v-954h160v-240h-399v584z" />
<glyph unicode="|" horiz-adv-x="575" d="M147 0v1434h240v-1434h-240z" />
<glyph unicode="}" horiz-adv-x="737" d="M82 0v240h160v954h-160v240h399v-584l267 -133l-267 -133v-584h-399z" />
<glyph unicode="~" horiz-adv-x="950" d="M57 592q25 164 157 209t290 -33q86 -39 125 -27q37 12 61 64l199 -57q-37 -119 -104.5 -171.5t-147.5 -48.5t-193 47q-8 2 -39.5 15.5t-40 15.5t-32 5t-33.5 -5t-22.5 -23t-20.5 -44z" />
<glyph unicode="&#xa1;" horiz-adv-x="565" d="M143 1298.5q0 55.5 40 95.5t98 40q55 0 95 -40t40 -95.5t-40 -96.5t-95 -41q-57 0 -97.5 41t-40.5 96.5zM160 -16v1015h239v-1015h-239z" />
<glyph unicode="&#xa2;" horiz-adv-x="1187" d="M104 717q0 207 131.5 366.5t333.5 202.5v176h185v-166q203 -20 354 -166q10 -14 0 -24l-131 -131q-16 -16 -31 0h2q-84 78 -194 96v-711q106 18 194 99h-2q14 14 31 0l131 -133q10 -14 0 -25q-145 -145 -354 -166v-137h-185v147q-203 43 -334 204t-131 368zM344 716.5 q0 -114.5 62.5 -206.5t162.5 -131v676q-100 -39 -162.5 -131.5t-62.5 -207z" />
<glyph unicode="&#xa3;" horiz-adv-x="1212" d="M12 498v250h215q23 61 49 116q123 250 342 400q111 76 242 117.5t182.5 47t83.5 5.5v-250q-18 0 -58 -5t-138.5 -38t-179.5 -90q-158 -109 -252 -303h227v-250h-311q-27 -125 -33 -248h743v-250h-997v125q0 188 33 373h-148z" />
<glyph unicode="&#xa5;" horiz-adv-x="1310" d="M0 1434h293l366 -512l365 512h293l-447 -625h170v-211h-262v-100h262v-207h-262v-291h-239v291h-271v207h271v100h-273v211h178z" />
<glyph unicode="&#xa7;" horiz-adv-x="851" d="M94 276h174q0 -80 70 -110q39 -18 84 -19q49 0 90 21q66 31 66 108q0 82 -70 113q-41 18 -86 19q-76 0 -156 36q-168 76 -172 273q0 133 92 219q-92 82 -92 219q0 195 172 270q80 37 156 37q80 0 158 -37q172 -76 172 -270h-174q0 80 -70 111q-16 8 -36.5 12t-33.5 6 l-14 2l-14 -2q-14 -2 -36 -6t-40 -12q-66 -35 -66 -111q0 -82 70 -113q18 -8 38.5 -13t33.5 -5h12q80 0 158 -37q168 -76 172 -272q0 -135 -93 -217q92 -86 93 -222q0 -195 -172 -270q-78 -37 -158 -37q-76 0 -156 37q-172 76 -172 270zM268 717q0 -82 70 -113 q43 -18 84 -18q45 0 90 20q66 31 66 111t-70 110q-43 18 -84 19q-45 0 -90 -21q-66 -31 -66 -108z" />
<glyph unicode="&#xa8;" horiz-adv-x="770" d="M33 1311q0 55 40 95t93 40q55 0 95 -40t40 -95q0 -53 -40 -93t-95 -40q-53 0 -93 39.5t-40 93.5zM461 1311q0 55 40 95t93 40q55 0 95 -40t40 -95q0 -53 -40 -93t-95 -40q-53 0 -93 39.5t-40 93.5z" />
<glyph unicode="&#xa9;" horiz-adv-x="1417" d="M92 817q0 256 179.5 436.5t433.5 180.5q256 0 435 -180.5t179 -436.5q0 -254 -179 -432t-435 -178q-254 0 -433.5 178t-179.5 432zM250 817q0 -186 134.5 -319t320.5 -133q188 0 321 133t133 319q0 188 -133 322.5t-321 134.5q-186 0 -320.5 -134t-134.5 -323zM432 819 q0 119 85 205t202 86q121 0 207 -86l-70 -68q-57 57 -137 58q-78 0 -134.5 -56.5t-56.5 -138.5q0 -78 56.5 -134t134.5 -56t137 55l70 -66q-86 -86 -207 -86q-117 0 -202 85t-85 202z" />
<glyph unicode="&#xab;" horiz-adv-x="1021" d="M39 655l375 478l153 -123l-256 -355l264 -319l-155 -129zM434 655l375 478l154 -123l-256 -355l264 -319l-156 -129z" />
<glyph unicode="&#xad;" horiz-adv-x="907" d="M84 612v217h721v-217h-721z" />
<glyph unicode="&#xae;" horiz-adv-x="1382" d="M82 817q0 256 179 436.5t433 180.5q256 0 435.5 -180.5t179.5 -436.5q0 -254 -179.5 -432t-435.5 -178q-254 0 -433 178t-179 432zM256 817q0 -180 129 -308t309 -128q182 0 310.5 128t128.5 308q0 184 -127 312t-312 128q-180 0 -309 -129t-129 -311zM500 520v592h202 q8 0 22.5 -1t49.5 -10t61.5 -25.5t49 -51.5t22.5 -84q0 -119 -119 -158l125 -262h-110l-119 246h-82v-246h-102zM602 866h100h11.5t25 4t30.5 11.5t24.5 23t11.5 35.5q0 33 -25.5 50.5t-50.5 19.5l-27 2h-100v-146z" />
<glyph unicode="&#xb0;" horiz-adv-x="747" d="M59 1151q0 129 92.5 221t221.5 92t221 -92t92 -221t-92 -221t-221 -92t-221.5 92t-92.5 221zM223 1151q0 -61 44 -105.5t105.5 -44.5t105.5 44.5t44 105.5t-44 106.5t-105.5 45.5t-105.5 -45.5t-44 -106.5z" />
<glyph unicode="&#xb1;" horiz-adv-x="1060" d="M94 59h844v211h-844v-211zM94 678v207h320v317h213v-317h317v-207h-317v-324h-213v324h-320z" />
<glyph unicode="&#xb2;" horiz-adv-x="698" d="M78 610v123l342 479q-8 37 -37 60.5t-66 23.5q-41 0 -71.5 -30.5t-30.5 -71.5h-137q0 98 70.5 169t168.5 71q100 0 171 -71t71 -169v-23l-303 -423h303v-138h-481z" />
<glyph unicode="&#xb3;" horiz-adv-x="681" d="M92 852h137q0 -43 30 -72.5t73 -29.5t72.5 29.5t29.5 72.5q0 39 -24.5 67.5t-63.5 32.5l-59 2v138h59q39 6 63.5 34.5t24.5 67.5q0 43 -29.5 72.5t-72.5 29.5t-73 -29.5t-30 -72.5h-137q0 98 69.5 169t170.5 71q98 0 168.5 -71t70.5 -169q0 -104 -71 -172q72 -68 71 -170 q0 -100 -70.5 -170t-168.5 -70q-100 0 -170 70t-70 170z" />
<glyph unicode="&#xb4;" horiz-adv-x="569" d="M39 1300l389 213l109 -172l-398 -208z" />
<glyph unicode="&#xb7;" horiz-adv-x="417" d="M61 723q0 57 40.5 98t95.5 41q57 0 98 -41t41 -98q0 -55 -41 -95t-98 -40q-55 0 -95.5 40t-40.5 95z" />
<glyph unicode="&#xb8;" horiz-adv-x="878" d="M78 -145h194q0 -61 44 -105.5t105.5 -44.5t104.5 44t43 105.5t-43 104.5t-104 43v197q141 0 242.5 -101.5t101.5 -242.5q0 -143 -101.5 -245t-242.5 -102q-143 0 -243.5 101.5t-100.5 245.5z" />
<glyph unicode="&#xb9;" horiz-adv-x="546" d="M74 1360l184 74h117v-709h-139v551l-111 -43z" />
<glyph unicode="&#xbb;" horiz-adv-x="1021" d="M49 336l264 319l-256 355l154 123l375 -478l-381 -448zM444 336l265 319l-256 355l153 123l375 -478l-381 -448z" />
<glyph unicode="&#xbf;" horiz-adv-x="1003" d="M76 412q0 137 94 241.5t238 130.5v252h217v-432q-168 10 -239 -49t-71 -143q0 -193 191 -193q76 0 128 42t52 114h238q0 -170 -121 -282.5t-297 -112.5q-188 0 -309 112.5t-121 319.5zM373 1309q0 82 68.5 116.5t137 1t68.5 -117.5q0 -82 -68.5 -117t-137 -1t-68.5 118z " />
<glyph unicode="&#xc0;" d="M0 0l571 1475l574 -1475h-258l-64 166h-504l-61 -166h-258zM342 1720l109 174l366 -213l-98 -165zM397 373h348l-174 497z" />
<glyph unicode="&#xc1;" d="M0 0l571 1475l574 -1475h-258l-64 166h-504l-61 -166h-258zM324 1681l389 213l108 -172l-397 -209zM397 373h348l-174 497z" />
<glyph unicode="&#xc2;" d="M0 0l571 1475l574 -1475h-258l-64 166h-504l-61 -166h-258zM221 1636l348 203l355 -190l-93 -158l-262 147l-250 -147zM397 373h348l-174 497z" />
<glyph unicode="&#xc3;" d="M0 0l571 1475l574 -1475h-258l-64 166h-504l-61 -166h-258zM221 1579q18 150 131 191.5t246 -29.5q76 -37 111 -23q29 12 47 56l166 -52q-31 -109 -88.5 -156.5t-124 -43.5t-162.5 43q-8 4 -33 14t-34 13t-27.5 5t-27.5 -4t-20.5 -21t-17.5 -40zM397 373h348l-174 497z " />
<glyph unicode="&#xc4;" d="M0 0l571 1475l574 -1475h-258l-64 166h-504l-61 -166h-258zM223 1655q0 55 40 95t93 40q55 0 95.5 -40t40.5 -95q0 -53 -40 -93t-96 -40q-53 0 -93 40t-40 93zM397 373h348l-174 497zM651 1655q0 55 40 95t93 40q55 0 95.5 -40t40.5 -95q0 -53 -40 -93t-96 -40 q-53 0 -93 40t-40 93z" />
<glyph unicode="&#xc5;" d="M0 0l471 1219q-78 29 -127 100.5t-49 157.5q0 113 82 194.5t194.5 81.5t194.5 -82t82 -194q0 -86 -49 -158t-129 -100l475 -1219h-258l-64 166h-504l-61 -166h-258zM397 373h348l-174 497zM457 1477q0 -47 33.5 -81t80.5 -34t81 34t34 81t-34 81.5t-81 34.5t-80.5 -34.5 t-33.5 -81.5z" />
<glyph unicode="&#xc6;" horiz-adv-x="1617" d="M-4 0l756 1427v7h2l2 2v-2h747v-234h-512v-364h416v-230h-416v-375h537v-231h-776v166h-392l-88 -166h-276zM467 391h285l2 318l14 319l-145 -338z" />
<glyph unicode="&#xc7;" horiz-adv-x="1421" d="M115 717q0 297 210 507t506 210q299 0 506 -211l-168 -168q-139 139 -337.5 139t-338 -139.5t-139.5 -338t139.5 -337.5t338 -139t337.5 139l168 -170q-115 -115 -268 -170q76 -76 76 -184q0 -143 -101.5 -245t-242.5 -102q-145 0 -244.5 90.5t-99.5 231.5h194 q0 -59 43 -92t107 -33q61 0 104 44t43 106q0 55 -35.5 96t-89.5 49q-293 4 -500.5 213t-207.5 504z" />
<glyph unicode="&#xc8;" horiz-adv-x="1204" d="M162 0v1434h956v-240h-717v-358h596v-238h-596v-358h717v-240h-956zM424 1745l108 174l367 -213l-98 -166z" />
<glyph unicode="&#xc9;" horiz-adv-x="1204" d="M162 0v1434h956v-240h-717v-358h596v-238h-596v-358h717v-240h-956zM414 1710l389 213l108 -172l-397 -209z" />
<glyph unicode="&#xca;" horiz-adv-x="1204" d="M162 0v1434h956v-240h-717v-358h596v-238h-596v-358h717v-240h-956zM315 1673l349 203l354 -190l-92 -158l-262 147l-250 -147z" />
<glyph unicode="&#xcb;" horiz-adv-x="1204" d="M162 0v1434h956v-240h-717v-358h596v-238h-596v-358h717v-240h-956zM334 1669q0 55 40 95t93 40q55 0 95 -40t40 -95q0 -53 -40 -93t-95 -40q-53 0 -93 40t-40 93zM762 1669q0 55 40 95t93 40q55 0 95 -40t40 -95q0 -53 -40 -93t-95 -40q-53 0 -93 40t-40 93z" />
<glyph unicode="&#xcc;" horiz-adv-x="716" d="M68 0v219h168v995h-160v220h559v-220h-160v-995h168v-219h-575zM121 1735l108 174l367 -213l-98 -166z" />
<glyph unicode="&#xcd;" horiz-adv-x="716" d="M68 0v219h168v995h-160v220h559v-220h-160v-995h168v-219h-575zM109 1690l389 213l108 -172l-397 -209z" />
<glyph unicode="&#xce;" horiz-adv-x="716" d="M8 1681l348 203l355 -190l-93 -158l-262 147l-250 -147zM68 0v219h168v995h-160v220h559v-220h-160v-995h168v-219h-575z" />
<glyph unicode="&#xcf;" horiz-adv-x="716" d="M12 1677q0 55 40 95t93 40q55 0 95.5 -40t40.5 -95q0 -53 -40 -93t-96 -40q-53 0 -93 40t-40 93zM68 0v219h168v995h-160v220h559v-220h-160v-995h168v-219h-575zM440 1677q0 55 40 95t93 40q55 0 95.5 -40t40.5 -95q0 -53 -40 -93t-96 -40q-53 0 -93 40t-40 93z" />
<glyph unicode="&#xd0;" horiz-adv-x="1355" d="M6 598v217h156v619h239q838 0 838 -717q0 -147 -37 -265t-102.5 -194t-145.5 -129t-179 -79.5t-187 -38t-187 -11.5h-239v598h-156zM401 233q12 -2 34 -4t83.5 1t117.5 14.5t125.5 45.5t119 84t83 139t33.5 204q0 117 -32.5 207t-85 140t-116 84t-128 43t-116.5 13t-85 0 l-33 -4v-385h269v-217h-269v-365z" />
<glyph unicode="&#xd1;" horiz-adv-x="1519" d="M162 0v1434h241l715 -1020v1020h238v-1434h-242l-713 1020v-1020h-239zM414 1630q18 150 130.5 192t246.5 -30q76 -37 110 -23q29 12 47 56l166 -51q-31 -109 -88 -157t-123.5 -44t-163.5 43q-8 4 -32.5 14t-33.5 13.5t-27.5 5.5t-28 -4.5t-20.5 -21.5t-17 -40z" />
<glyph unicode="&#xd2;" horiz-adv-x="1306" d="M117 921.5q0 219.5 156.5 376t375.5 156.5t376 -156.5t157 -376t-157 -376t-376 -156.5t-375.5 156.5t-156.5 376zM170 0v238h946v-238h-946zM354 921.5q0 -122.5 86 -208.5t209 -86t209 86t86 208.5t-86 209t-209 86.5t-209 -86.5t-86 -209zM416 1735l108 174l367 -213 l-98 -166z" />
<glyph unicode="&#xd3;" horiz-adv-x="1306" d="M117 921.5q0 219.5 156.5 376t375.5 156.5t376 -156.5t157 -376t-157 -376t-376 -156.5t-375.5 156.5t-156.5 376zM170 0v238h946v-238h-946zM354 921.5q0 -122.5 86 -208.5t209 -86t209 86t86 208.5t-86 209t-209 86.5t-209 -86.5t-86 -209zM403 1710l390 213l108 -172 l-397 -209z" />
<glyph unicode="&#xd4;" horiz-adv-x="1306" d="M117 921.5q0 219.5 156.5 376t375.5 156.5t376 -156.5t157 -376t-157 -376t-376 -156.5t-375.5 156.5t-156.5 376zM170 0v238h946v-238h-946zM301 1669l348 203l355 -191l-93 -157l-262 147l-250 -147zM354 921.5q0 -122.5 86 -208.5t209 -86t209 86t86 208.5t-86 209 t-209 86.5t-209 -86.5t-86 -209z" />
<glyph unicode="&#xd5;" horiz-adv-x="1306" d="M117 921.5q0 219.5 156.5 376t375.5 156.5t376 -156.5t157 -376t-157 -376t-376 -156.5t-375.5 156.5t-156.5 376zM170 0v238h946v-238h-946zM303 1612q18 150 131 191.5t246 -29.5q76 -37 111 -23q29 12 47 55l166 -51q-31 -109 -88.5 -157t-124 -43.5t-162.5 42.5 q-8 4 -33 14.5t-34 13.5t-27.5 5t-27.5 -4t-20.5 -21t-17.5 -40zM354 921.5q0 -122.5 86 -208.5t209 -86t209 86t86 208.5t-86 209t-209 86.5t-209 -86.5t-86 -209z" />
<glyph unicode="&#xd6;" horiz-adv-x="1306" d="M117 921.5q0 219.5 156.5 376t375.5 156.5t376 -156.5t157 -376t-157 -376t-376 -156.5t-375.5 156.5t-156.5 376zM170 0v238h946v-238h-946zM305 1659q0 55 40 95t93 40q55 0 95 -40t40 -95q0 -53 -39.5 -93t-95.5 -40q-53 0 -93 40t-40 93zM354 921.5 q0 -122.5 86 -208.5t209 -86t209 86t86 208.5t-86 209t-209 86.5t-209 -86.5t-86 -209zM733 1659q0 55 40 95t93 40q55 0 95 -40t40 -95q0 -53 -39.5 -93t-95.5 -40q-53 0 -93 40t-40 93z" />
<glyph unicode="&#xd7;" horiz-adv-x="825" d="M35 907l145 146l215 -215l211 213l144 -144l-213 -211l213 -213l-146 -143l-213 213l-211 -213l-143 143l213 213z" />
<glyph unicode="&#xd8;" horiz-adv-x="1306" d="M117 901q0 219 156.5 376t375.5 157q115 0 223 -50l70 103h250l-154 -223q143 -158 144 -363q0 -219 -157 -375.5t-376 -156.5q-104 0 -200 39l-58 -82h-244l132 192q-162 158 -162 383zM170 0v238h946v-238h-946zM354 901q0 -104 62 -182l319 465q-41 12 -86 12 q-123 0 -209 -86t-86 -209zM588 612q31 -6 61 -6q123 0 209 86t86 209q0 84 -47 158z" />
<glyph unicode="&#xd9;" horiz-adv-x="1515" d="M162 575v859h1192v-859q0 -147 -72 -290q-74 -147 -209 -226t-315 -79t-315.5 78.5t-209.5 226.5q-72 143 -71 290zM399 575q2 -98 52 -190q88 -166 307 -166q223 0 307 166q51 96 51 193v616h-717v-619zM520 1735l109 174l366 -213l-98 -166z" />
<glyph unicode="&#xda;" horiz-adv-x="1515" d="M162 575v859h1192v-859q0 -147 -72 -290q-74 -147 -209 -226t-315 -79t-315.5 78.5t-209.5 226.5q-72 143 -71 290zM399 575q2 -98 52 -190q88 -166 307 -166q223 0 307 166q51 96 51 193v616h-717v-619zM508 1710l389 213l109 -172l-398 -209z" />
<glyph unicode="&#xdb;" horiz-adv-x="1515" d="M162 575v859h1192v-859q0 -147 -72 -290q-74 -147 -209 -226t-315 -79t-315.5 78.5t-209.5 226.5q-72 143 -71 290zM399 575q2 -98 52 -190q88 -166 307 -166q223 0 307 166q51 96 51 193v616h-717v-619zM406 1700l348 203l354 -191l-92 -158l-262 148l-250 -148z" />
<glyph unicode="&#xdc;" horiz-adv-x="1515" d="M162 575v859h1192v-859q0 -147 -72 -290q-74 -147 -209 -226t-315 -79t-315.5 78.5t-209.5 226.5q-72 143 -71 290zM399 575q2 -98 52 -190q88 -166 307 -166q223 0 307 166q51 96 51 193v616h-717v-619zM410 1690q0 55 39.5 95t93.5 40q55 0 95 -40t40 -95 q0 -53 -40 -93.5t-95 -40.5q-53 0 -93 40t-40 94zM838 1690q0 55 40 95t93 40q55 0 95 -40t40 -95q0 -53 -40 -93.5t-95 -40.5q-53 0 -93 40t-40 94z" />
<glyph unicode="&#xdd;" horiz-adv-x="1320" d="M0 1434h293l366 -512l365 512h293l-539 -756v-678h-239v678zM412 1688l389 213l108 -172l-397 -209z" />
<glyph unicode="&#xde;" horiz-adv-x="1193" d="M162 0v545h227l-227 358v533h239v-293h238q10 0 27.5 -1t66.5 -9.5t94 -22.5t100.5 -46t94.5 -74t66.5 -110.5t27.5 -154.5q0 -117 -49 -203t-119.5 -126t-140.5 -62.5t-119 -24.5l-49 -2h-238v-307h-239zM446 903l224 -356q209 27 209 178q0 80 -59.5 124t-119.5 48 l-61 6h-193z" />
<glyph unicode="&#xdf;" horiz-adv-x="1212" d="M162 0v1432h477q10 0 27.5 -1t66.5 -9.5t94 -23t100.5 -46t94.5 -73.5t66.5 -110.5t27.5 -154.5q0 -80 -24.5 -140.5t-59.5 -89t-69.5 -46t-59.5 -21.5l-24 -2q106 -16 168.5 -90t72.5 -142l10 -65q0 -86 -26.5 -154.5t-70.5 -110.5t-96 -74t-104.5 -46.5t-96.5 -22.5 t-70 -10h-27v238q10 0 27.5 1t61.5 11t77 26.5t60.5 53.5t27.5 88q0 80 -63.5 124t-127.5 48l-63 6v240q10 0 26.5 1t57.5 10t72.5 26.5t57.5 54.5t26 86t-25 86t-59.5 54t-70.5 27.5t-60 14.5l-25 2h-223l-2 -1198h-252z" />
<glyph unicode="&#xe0;" d="M0 0l571 1475l574 -1475h-258l-64 166h-504l-61 -166h-258zM342 1720l109 174l366 -213l-98 -165zM397 373h348l-174 497z" />
<glyph unicode="&#xe1;" d="M0 0l571 1475l574 -1475h-258l-64 166h-504l-61 -166h-258zM324 1681l389 213l108 -172l-397 -209zM397 373h348l-174 497z" />
<glyph unicode="&#xe2;" d="M0 0l571 1475l574 -1475h-258l-64 166h-504l-61 -166h-258zM221 1636l348 203l355 -190l-93 -158l-262 147l-250 -147zM397 373h348l-174 497z" />
<glyph unicode="&#xe3;" d="M0 0l571 1475l574 -1475h-258l-64 166h-504l-61 -166h-258zM221 1579q18 150 131 191.5t246 -29.5q76 -37 111 -23q29 12 47 56l166 -52q-31 -109 -88.5 -156.5t-124 -43.5t-162.5 43q-8 4 -33 14t-34 13t-27.5 5t-27.5 -4t-20.5 -21t-17.5 -40zM397 373h348l-174 497z " />
<glyph unicode="&#xe4;" d="M0 0l571 1475l574 -1475h-258l-64 166h-504l-61 -166h-258zM223 1655q0 55 40 95t93 40q55 0 95.5 -40t40.5 -95q0 -53 -40 -93t-96 -40q-53 0 -93 40t-40 93zM397 373h348l-174 497zM651 1655q0 55 40 95t93 40q55 0 95.5 -40t40.5 -95q0 -53 -40 -93t-96 -40 q-53 0 -93 40t-40 93z" />
<glyph unicode="&#xe5;" d="M0 0l471 1219q-78 29 -127 100.5t-49 157.5q0 113 82 194.5t194.5 81.5t194.5 -82t82 -194q0 -86 -49 -158t-129 -100l475 -1219h-258l-64 166h-504l-61 -166h-258zM397 373h348l-174 497zM457 1477q0 -47 33.5 -81t80.5 -34t81 34t34 81t-34 81.5t-81 34.5t-80.5 -34.5 t-33.5 -81.5z" />
<glyph unicode="&#xe6;" horiz-adv-x="1617" d="M-4 0l756 1427v7h2l2 2v-2h747v-234h-512v-364h416v-230h-416v-375h537v-231h-776v166h-392l-88 -166h-276zM467 391h285l2 318l14 319l-145 -338z" />
<glyph unicode="&#xe7;" horiz-adv-x="1421" d="M115 717q0 297 210 507t506 210q299 0 506 -211l-168 -168q-139 139 -337.5 139t-338 -139.5t-139.5 -338t139.5 -337.5t338 -139t337.5 139l168 -170q-115 -115 -268 -170q76 -76 76 -184q0 -143 -101.5 -245t-242.5 -102q-145 0 -244.5 90.5t-99.5 231.5h194 q0 -59 43 -92t107 -33q61 0 104 44t43 106q0 55 -35.5 96t-89.5 49q-293 4 -500.5 213t-207.5 504z" />
<glyph unicode="&#xe8;" horiz-adv-x="1204" d="M162 0v1434h956v-240h-717v-358h596v-238h-596v-358h717v-240h-956zM424 1745l108 174l367 -213l-98 -166z" />
<glyph unicode="&#xe9;" horiz-adv-x="1204" d="M162 0v1434h956v-240h-717v-358h596v-238h-596v-358h717v-240h-956zM414 1710l389 213l108 -172l-397 -209z" />
<glyph unicode="&#xea;" horiz-adv-x="1204" d="M162 0v1434h956v-240h-717v-358h596v-238h-596v-358h717v-240h-956zM315 1673l349 203l354 -190l-92 -158l-262 147l-250 -147z" />
<glyph unicode="&#xeb;" horiz-adv-x="1204" d="M162 0v1434h956v-240h-717v-358h596v-238h-596v-358h717v-240h-956zM334 1669q0 55 40 95t93 40q55 0 95 -40t40 -95q0 -53 -40 -93t-95 -40q-53 0 -93 40t-40 93zM762 1669q0 55 40 95t93 40q55 0 95 -40t40 -95q0 -53 -40 -93t-95 -40q-53 0 -93 40t-40 93z" />
<glyph unicode="&#xec;" horiz-adv-x="573" d="M49 1710l109 174l366 -213l-98 -166zM168 0v1434h240v-1434h-240z" />
<glyph unicode="&#xed;" horiz-adv-x="573" d="M39 1683l389 213l109 -172l-398 -208zM168 0v1434h240v-1434h-240z" />
<glyph unicode="&#xee;" horiz-adv-x="573" d="M-63 1647l348 202l354 -190l-92 -158l-262 148l-250 -148zM168 0v1434h240v-1434h-240z" />
<glyph unicode="&#xef;" horiz-adv-x="573" d="M-61 1655q0 55 39.5 95t93.5 40q55 0 95 -40t40 -95q0 -53 -40 -93t-95 -40q-53 0 -93 40t-40 93zM168 0v1434h240v-1434h-240zM367 1655q0 55 39.5 95t93.5 40q55 0 95 -40t40 -95q0 -53 -40 -93t-95 -40q-53 0 -93 40t-40 93z" />
<glyph unicode="&#xf0;" horiz-adv-x="1355" d="M6 598v217h156v619h239q838 0 838 -717q0 -147 -37 -265t-102.5 -194t-145.5 -129t-179 -79.5t-187 -38t-187 -11.5h-239v598h-156zM401 233q12 -2 34 -4t83.5 1t117.5 14.5t125.5 45.5t119 84t83 139t33.5 204q0 117 -32.5 207t-85 140t-116 84t-128 43t-116.5 13t-85 0 l-33 -4v-385h269v-217h-269v-365z" />
<glyph unicode="&#xf1;" horiz-adv-x="1519" d="M162 0v1434h241l715 -1020v1020h238v-1434h-242l-713 1020v-1020h-239zM414 1630q18 150 130.5 192t246.5 -30q76 -37 110 -23q29 12 47 56l166 -51q-31 -109 -88 -157t-123.5 -44t-163.5 43q-8 4 -32.5 14t-33.5 13.5t-27.5 5.5t-28 -4.5t-20.5 -21.5t-17 -40z" />
<glyph unicode="&#xf2;" horiz-adv-x="1632" d="M102 717q0 137 47.5 269t132.5 235.5t223 167t308 63.5t307 -63.5t222 -167t131.5 -235.5t46.5 -269t-46.5 -269.5t-130 -235.5t-222 -166.5t-308.5 -63.5q-172 0 -310 63.5t-223 166.5t-131.5 235.5t-46.5 269.5zM348 716q0 -95 30 -185.5t86 -161t146 -113.5t203 -43 q127 0 227.5 55.5t152.5 144.5t75.5 195.5t0 214t-75.5 196.5t-152.5 144.5t-227.5 55.5q-113 0 -203 -43t-146 -114t-86 -161t-30 -185zM575 1745l109 174l367 -213l-99 -166z" />
<glyph unicode="&#xf3;" horiz-adv-x="1632" d="M102 717q0 137 47.5 269t132.5 235.5t223 167t308 63.5t307 -63.5t222 -167t131.5 -235.5t46.5 -269t-46.5 -269.5t-130 -235.5t-222 -166.5t-308.5 -63.5q-172 0 -310 63.5t-223 166.5t-131.5 235.5t-46.5 269.5zM348 716q0 -95 30 -185.5t86 -161t146 -113.5t203 -43 q127 0 227.5 55.5t152.5 144.5t75.5 195.5t0 214t-75.5 196.5t-152.5 144.5t-227.5 55.5q-113 0 -203 -43t-146 -114t-86 -161t-30 -185zM582 1710l389 213l108 -172l-397 -209z" />
<glyph unicode="&#xf4;" horiz-adv-x="1632" d="M102 717q0 137 47.5 269t132.5 235.5t223 167t308 63.5t307 -63.5t222 -167t131.5 -235.5t46.5 -269t-46.5 -269.5t-130 -235.5t-222 -166.5t-308.5 -63.5q-172 0 -310 63.5t-223 166.5t-131.5 235.5t-46.5 269.5zM348 716q0 -95 30 -185.5t86 -161t146 -113.5t203 -43 q127 0 227.5 55.5t152.5 144.5t75.5 195.5t0 214t-75.5 196.5t-152.5 144.5t-227.5 55.5q-113 0 -203 -43t-146 -114t-86 -161t-30 -185zM465 1673l348 203l354 -190l-92 -158l-262 147l-250 -147z" />
<glyph unicode="&#xf5;" horiz-adv-x="1632" d="M102 717q0 137 47.5 269t132.5 235.5t223 167t308 63.5t307 -63.5t222 -167t131.5 -235.5t46.5 -269t-46.5 -269.5t-130 -235.5t-222 -166.5t-308.5 -63.5q-172 0 -310 63.5t-223 166.5t-131.5 235.5t-46.5 269.5zM348 716q0 -95 30 -185.5t86 -161t146 -113.5t203 -43 q127 0 227.5 55.5t152.5 144.5t75.5 195.5t0 214t-75.5 196.5t-152.5 144.5t-227.5 55.5q-113 0 -203 -43t-146 -114t-86 -161t-30 -185zM477 1628q18 150 131 192t246 -30q76 -37 111 -23q29 12 47 56l166 -51q-31 -109 -88.5 -157t-124 -44t-162.5 43q-8 4 -33 14 t-34 13.5t-27.5 5.5t-27.5 -4.5t-20.5 -21.5t-17.5 -40z" />
<glyph unicode="&#xf6;" horiz-adv-x="1632" d="M102 717q0 137 47.5 269t132.5 235.5t223 167t308 63.5t307 -63.5t222 -167t131.5 -235.5t46.5 -269t-46.5 -269.5t-130 -235.5t-222 -166.5t-308.5 -63.5q-172 0 -310 63.5t-223 166.5t-131.5 235.5t-46.5 269.5zM348 716q0 -95 30 -185.5t86 -161t146 -113.5t203 -43 q127 0 227.5 55.5t152.5 144.5t75.5 195.5t0 214t-75.5 196.5t-152.5 144.5t-227.5 55.5q-113 0 -203 -43t-146 -114t-86 -161t-30 -185zM467 1681q0 55 40 95.5t93 40.5q55 0 95 -40.5t40 -95.5q0 -53 -40 -93t-95 -40q-53 0 -93 40t-40 93zM895 1681q0 55 40 95.5t93 40.5 q55 0 95 -40.5t40 -95.5q0 -53 -40 -93t-95 -40q-53 0 -93 40t-40 93z" />
<glyph unicode="&#xf7;" horiz-adv-x="1003" d="M76 590h870v211h-870v-211zM371 348.5q0 57.5 42 99t99 41.5q59 0 101 -40.5t42 -100t-42 -100.5t-101 -41q-57 0 -99 42t-42 99.5zM371 1034.5q0 59.5 42 100.5t99 41q59 0 101 -41t42 -100.5t-42 -100.5t-101 -41q-57 0 -99 41t-42 100.5z" />
<glyph unicode="&#xf8;" horiz-adv-x="1632" d="M104 716.5q0 112.5 27 218t86 200t141 165t200 111.5t255 41q135 0 260 -43l88 158h244l-148 -262q113 -90 178.5 -226.5t80 -282t-24.5 -292t-123 -261t-228.5 -186t-326.5 -71.5q-150 0 -272 47l-92 -166h-238l149 268q-84 70 -142 165t-86 199.5t-28 217zM350.5 775 q-14.5 -116 20.5 -229.5t110 -193.5l473 846q-71 21 -141 21q-137 0 -241.5 -63.5t-155.5 -164t-65.5 -216.5zM657 240q74 -23 156 -23q139 0 243.5 64.5t155 166t63.5 217t-24 230.5t-114 195z" />
<glyph unicode="&#xf9;" horiz-adv-x="1398" d="M162 459v975h239v-975q8 -119 92.5 -179.5t205 -60.5t209.5 63.5t89 176.5v975h240v-975q0 -223 -151.5 -351t-387.5 -128q-227 0 -381.5 132t-154.5 347zM432 1720l109 174l366 -213l-98 -165z" />
<glyph unicode="&#xfa;" horiz-adv-x="1398" d="M162 459v975h239v-975q8 -119 92.5 -179.5t205 -60.5t209.5 63.5t89 176.5v975h240v-975q0 -223 -151.5 -351t-387.5 -128q-227 0 -381.5 132t-154.5 347zM467 1677l389 213l109 -172l-398 -209z" />
<glyph unicode="&#xfb;" horiz-adv-x="1398" d="M162 459v975h239v-975q8 -119 92.5 -179.5t205 -60.5t209.5 63.5t89 176.5v975h240v-975q0 -223 -151.5 -351t-387.5 -128q-227 0 -381.5 132t-154.5 347zM348 1669l348 203l355 -191l-93 -157l-262 147l-250 -147z" />
<glyph unicode="&#xfc;" horiz-adv-x="1398" d="M162 459v975h239v-975q8 -119 92.5 -179.5t205 -60.5t209.5 63.5t89 176.5v975h240v-975q0 -223 -151.5 -351t-387.5 -128q-227 0 -381.5 132t-154.5 347zM350 1671q0 55 40 95t93 40q55 0 95 -40t40 -95q0 -53 -39.5 -93t-95.5 -40q-53 0 -93 40t-40 93zM778 1671 q0 55 40 95t93 40q55 0 95.5 -40t40.5 -95q0 -53 -40 -93t-96 -40q-53 0 -93 40t-40 93z" />
<glyph unicode="&#xfd;" horiz-adv-x="1320" d="M0 1434h293l366 -512l365 512h293l-539 -756v-678h-239v678zM420 1694l389 213l109 -172l-398 -209z" />
<glyph unicode="&#xfe;" horiz-adv-x="1187" d="M162 -4v1438h239v-279h240q10 0 27.5 -1t66.5 -9t95.5 -22.5t101.5 -46.5t94 -73.5t66.5 -111.5t27.5 -156t-26.5 -155.5t-68.5 -111.5t-93 -74t-102.5 -46t-93.5 -22.5t-68 -10.5h-27h-240v-319h-239zM401 555h240q10 0 26.5 1t57.5 11.5t72.5 26.5t57.5 53t26 88 q0 80 -59.5 125t-121.5 49l-59 6h-240v-360z" />
<glyph unicode="&#xff;" horiz-adv-x="1320" d="M0 1434h293l366 -512l365 512h293l-539 -756v-678h-239v678zM311 1669q0 55 40 95t93 40q55 0 95.5 -40t40.5 -95q0 -53 -40 -93t-96 -40q-53 0 -93 40t-40 93zM739 1669q0 55 40 95t93 40q55 0 95.5 -40t40.5 -95q0 -53 -40 -93t-96 -40q-53 0 -93 40t-40 93z" />
<glyph unicode="&#x152;" horiz-adv-x="1937" d="M127 719q0 137 44 269t127 234.5t216 166t299 63.5q94 0 174 -18h803v-230h-586v-368h494v-228h-494v-372h615v-236h-842v2q-82 -16 -164 -16q-166 0 -300 63.5t-216 165.5t-126 234.5t-44 269.5zM392.5 606.5q21.5 -110.5 69.5 -203t140 -149.5t211 -57q84 0 164 26v989 q-80 27 -164 27q-117 0 -210 -57.5t-140 -149.5t-69.5 -203.5t-1 -222z" />
<glyph unicode="&#x153;" horiz-adv-x="1937" d="M127 719q0 137 44 269t127 234.5t216 166t299 63.5q94 0 174 -18h803v-230h-586v-368h494v-228h-494v-372h615v-236h-842v2q-82 -16 -164 -16q-166 0 -300 63.5t-216 165.5t-126 234.5t-44 269.5zM392.5 606.5q21.5 -110.5 69.5 -203t140 -149.5t211 -57q84 0 164 26v989 q-80 27 -164 27q-117 0 -210 -57.5t-140 -149.5t-69.5 -203.5t-1 -222z" />
<glyph unicode="&#x178;" horiz-adv-x="1320" d="M0 1434h293l366 -512l365 512h293l-539 -756v-678h-239v678zM311 1671q0 55 40 95t93 40q55 0 95.5 -40t40.5 -95q0 -53 -40 -93t-96 -40q-53 0 -93 40t-40 93zM739 1671q0 55 40 95t93 40q55 0 95.5 -40t40.5 -95q0 -53 -40 -93t-96 -40q-53 0 -93 40t-40 93z" />
<glyph unicode="&#x2c6;" horiz-adv-x="802" d="M57 1290l349 203l354 -190l-92 -158l-262 147l-250 -147z" />
<glyph unicode="&#x2dc;" horiz-adv-x="802" d="M57 1247q18 150 131 192t246 -30q76 -37 111 -23q29 12 47 56l166 -51q-31 -109 -88.5 -157t-124 -44t-162.5 43q-8 4 -32.5 14t-34 13.5t-28 5.5t-27.5 -4.5t-20.5 -21.5t-17.5 -40z" />
<glyph unicode="&#x2000;" horiz-adv-x="961" />
<glyph unicode="&#x2001;" horiz-adv-x="1923" />
<glyph unicode="&#x2002;" horiz-adv-x="961" />
<glyph unicode="&#x2003;" horiz-adv-x="1923" />
<glyph unicode="&#x2004;" horiz-adv-x="641" />
<glyph unicode="&#x2005;" horiz-adv-x="480" />
<glyph unicode="&#x2006;" horiz-adv-x="320" />
<glyph unicode="&#x2007;" horiz-adv-x="320" />
<glyph unicode="&#x2008;" horiz-adv-x="240" />
<glyph unicode="&#x2009;" horiz-adv-x="384" />
<glyph unicode="&#x200a;" horiz-adv-x="106" />
<glyph unicode="&#x2010;" horiz-adv-x="907" d="M84 612v217h721v-217h-721z" />
<glyph unicode="&#x2011;" horiz-adv-x="907" d="M84 612v217h721v-217h-721z" />
<glyph unicode="&#x2012;" horiz-adv-x="907" d="M84 612v217h721v-217h-721z" />
<glyph unicode="&#x2013;" horiz-adv-x="1042" d="M80 584v227h866v-227h-866z" />
<glyph unicode="&#x2014;" horiz-adv-x="1185" d="M80 584v227h989v-227h-989z" />
<glyph unicode="&#x201a;" horiz-adv-x="411" d="M59 110.5q0 53.5 38 90.5t89 37q113 0 137.5 -90.5t-21.5 -194t-116 -146.5v177q-51 0 -89 36.5t-38 90z" />
<glyph unicode="&#x201e;" horiz-adv-x="804" d="M59 110.5q0 53.5 38 90.5t89 37q113 0 137.5 -90.5t-21.5 -194t-116 -146.5v177q-51 0 -89 36.5t-38 90zM434 110.5q0 53.5 37 90.5t90 37q113 0 137.5 -90.5t-21.5 -194t-116 -146.5v177q-53 0 -90 36.5t-37 90z" />
<glyph unicode="&#x2022;" horiz-adv-x="638" d="M82 717q0 92 65.5 156.5t155.5 64.5q92 0 156.5 -64.5t64.5 -156.5q0 -90 -64.5 -155.5t-156.5 -65.5q-90 0 -155.5 65.5t-65.5 155.5z" />
<glyph unicode="&#x2026;" horiz-adv-x="1138" d="M53 114.5q0 53.5 38 92.5t89 39q55 0 93 -39t38 -92.5t-37.5 -90t-93.5 -36.5q-53 0 -90 36.5t-37 90zM422 114.5q0 53.5 38 92.5t89 39q55 0 93 -39t38 -92.5t-38 -90t-93 -36.5q-53 0 -90 36.5t-37 90zM791 114.5q0 53.5 38 92.5t89 39q55 0 93 -39t38 -92.5t-38 -90 t-93 -36.5q-53 0 -90 36.5t-37 90z" />
<glyph unicode="&#x202f;" horiz-adv-x="384" />
<glyph unicode="&#x2039;" horiz-adv-x="643" d="M39 655l375 478l153 -123l-256 -355l264 -319l-155 -129z" />
<glyph unicode="&#x203a;" horiz-adv-x="643" d="M51 336l264 319l-256 355l154 123l375 -478l-381 -448z" />
<glyph unicode="&#x205f;" horiz-adv-x="480" />
<glyph unicode="&#x20ac;" horiz-adv-x="1214" d="M12 471v176h117q-6 51 -2 117h-115v176h146q66 219 235.5 356.5t437.5 137.5q160 0 318 -84l-111 -211q-106 55 -207 55q-152 0 -258 -69.5t-159 -184.5h352v-176h-397q-6 -61 2 -117h395v-176h-340q125 -231 405 -231q127 0 230 51l80 -228q-139 -63 -310 -63 q-262 0 -430 130t-237 341h-152z" />
<glyph unicode="&#x2122;" horiz-adv-x="1323" d="M84 1333v101h385v-101h-141v-508h-103v508h-141zM551 825h100v381l187 -381h94l174 373v-373h102v609h-104l-221 -473l-230 473h-102v-609z" />
<glyph unicode="&#x25fc;" horiz-adv-x="1433" d="M0 0v1434h1434v-1434h-1434z" />
</font>
</defs>
</svg>
