<?xml version="1.0" encoding="utf-8"?>
<!-- Generator: Adobe Illustrator 18.0.0, SVG Export Plug-In . SVG Version: 6.00 Build 0)  -->
<!DOCTYPE svg PUBLIC "-//W3C//DTD SVG 1.1//EN" "http://www.w3.org/Graphics/SVG/1.1/DTD/svg11.dtd">
<svg version="1.1" id="Layer_1" xmlns="http://www.w3.org/2000/svg" xmlns:xlink="http://www.w3.org/1999/xlink" x="0px" y="0px"
	 viewBox="0 0 151.8 78.1" enable-background="new 0 0 151.8 78.1" xml:space="preserve">
<g>
	<g>
		<rect x="9.2" y="8.9" fill="#FFB439" width="134.7" height="61.3"/>
		<g>
			<path fill="#FFB439" d="M143.9,65.3c-44.9,0-89.7,0-134.6,0c0,0-0.1,0-0.1,0c1.7,1.7,3.3,3.3,5,5c0-20.4,0-40.9,0-61.3
				c-1.7,1.7-3.3,3.3-5,5c44.9,0,89.7,0,134.6,0c0,0,0.1,0,0.1,0c-1.7-1.7-3.3-3.3-5-5c0,20.4,0,40.9,0,61.3c0,6.4,10,6.4,10,0
				c0-20.4,0-40.9,0-61.3c0-2.7-2.3-5-5-5c-44.9,0-89.7,0-134.6,0c0,0-0.1,0-0.1,0c-2.7,0-5,2.3-5,5c0,20.4,0,40.9,0,61.3
				c0,2.7,2.3,5,5,5c44.9,0,89.7,0,134.6,0c0,0,0.1,0,0.1,0C150.3,75.3,150.3,65.3,143.9,65.3z"/>
		</g>
	</g>
	<rect x="15.3" y="25.7" fill="none" width="122.3" height="27.8"/>
	
		<text transform="matrix(0.9969 0 0 1 30.2092 47.3914)" fill="#FFFFFF" font-family="'HelveticaNeueLTStd-Lt'" font-size="30.3604">Apoyar</text>
</g>
</svg>
