<?xml version="1.0" encoding="utf-8"?>
<!-- Generator: Adobe Illustrator 18.0.0, SVG Export Plug-In . SVG Version: 6.00 Build 0)  -->
<!DOCTYPE svg PUBLIC "-//W3C//DTD SVG 1.1//EN" "http://www.w3.org/Graphics/SVG/1.1/DTD/svg11.dtd">
<svg version="1.1" id="Capa_1" xmlns="http://www.w3.org/2000/svg" xmlns:xlink="http://www.w3.org/1999/xlink" x="0px" y="0px"
	 viewBox="0 532.3 1080 930.1" enable-background="new 0 532.3 1080 930.1" xml:space="preserve">
<g>
	<g>
		<path fill="#FFB439" d="M244.8,1052.8v152.4c0,0,128.7,142.2,311.5,142.2c230.2,0,311.5-142.2,311.5-142.2v-165.9L600.2,1195
			c-20.3,10.2-44,13.5-64.3,3.4L244.8,1052.8z"/>
		<path fill="#FFB439" d="M563,873.3c-33.9,0-67.7-6.8-84.6-20.3L156.7,964.7l382.6,193c20.3,10.2,44,10.2,60.9-3.4l446.9-260.7
			c20.3-13.5,33.9-33.9,33.9-57.6c0-23.7-13.5-47.4-37.2-57.6L583.3,544.9c-20.3-10.2-44-10.2-60.9,3.4L72.1,809
			c-20.3,13.5-33.9,33.9-33.9,57.6s13.5,47.4,37.2,57.6v237c-23.7,6.8-40.6,27.1-40.6,54.2c0,20.3,10.2,37.2,23.7,47.4
			c-3.4,33.9-20.3,57.6-37.2,74.5C7.8,1350.7-2.4,1371,1,1387.9c0,20.3,10.2,37.2,27.1,50.8l6.8,6.8c13.5,10.2,33.9,13.5,54.2,10.2
			c20.3-3.4,33.9-16.9,44-30.5c30.5-57.6,16.9-128.7,6.8-162.5c10.2-10.2,16.9-27.1,16.9-40.6c0-27.1-16.9-47.4-40.6-54.2V941
			l348.7-121.9c3.4-13.5,16.9-27.1,16.9-27.1c0,3.4,0,54.2,74.5,54.2c44,0,77.9-13.5,77.9-40.6c0-3.4,0-10.2-3.4-16.9
			c13.5,13.5,20.3,30.5,20.3,44C654.4,856.4,613.8,873.3,563,873.3z"/>
	</g>
</g>
</svg>
