<?xml version="1.0" encoding="utf-8"?>
<!-- Generator: Adobe Illustrator 18.0.0, SVG Export Plug-In . SVG Version: 6.00 Build 0)  -->
<!DOCTYPE svg PUBLIC "-//W3C//DTD SVG 1.1//EN" "http://www.w3.org/Graphics/SVG/1.1/DTD/svg11.dtd">
<svg version="1.1" id="Layer_1" xmlns="http://www.w3.org/2000/svg" xmlns:xlink="http://www.w3.org/1999/xlink" x="0px" y="0px"
	 viewBox="0 0 40 40" enable-background="new 0 0 40 40" xml:space="preserve">
<g>
	<path fill="#4098FF" d="M158.8-51.7c-11.1,0-20,9.2-20,20.6s9,20.6,20,20.6s20-9.2,20-20.6S169.9-51.7,158.8-51.7z M170.9-36.6
		c0,0.2,0,0.5,0,0.7c0,8.8-6.5,17.9-17.4,17.9c-3.3,0-6.6-1-9.4-2.8c-0.1,0-0.1-0.1-0.1-0.2c0-0.1,0.1-0.1,0.2-0.1
		c0.5,0.1,1,0.1,1.4,0.1c2.6,0,5-0.8,7.1-2.4c-2.5-0.2-4.6-1.9-5.4-4.4c0-0.1,0-0.1,0-0.1c0,0,0.1-0.1,0.1,0c0.7,0.1,1.4,0.1,2.1,0
		c-2.6-0.8-4.4-3.3-4.4-6.1l0-0.1c0-0.1,0-0.1,0.1-0.1c0,0,0.1,0,0.1,0c0.7,0.4,1.4,0.6,2.2,0.7c-1.5-1.2-2.3-3-2.3-5
		c0-1.1,0.3-2.2,0.8-3.2c0,0,0.1-0.1,0.1-0.1c0,0,0.1,0,0.1,0.1c3,3.8,7.4,6.1,12.2,6.4c-0.1-0.4-0.1-0.8-0.1-1.3
		c0-3.5,2.8-6.4,6.2-6.4c1.7,0,3.3,0.7,4.5,2c1.3-0.3,2.6-0.8,3.7-1.5c0.1,0,0.1,0,0.2,0c0,0,0.1,0.1,0,0.2
		c-0.4,1.3-1.2,2.4-2.2,3.2c1-0.2,1.9-0.5,2.8-0.9c0.1,0,0.1,0,0.2,0c0,0.1,0,0.1,0,0.2C173.1-38.6,172.1-37.5,170.9-36.6z"/>
</g>
<path fill="#3B5997" d="M122.5,65.2c0-11.1-9-20-20-20c-11.1,0-20,9-20,20c0,11.1,9,20,20,20C113.5,85.2,122.5,76.3,122.5,65.2z
	 M97.1,65.2v-3.8h2.3v-2.3c0-3.1,0.9-5.4,4.4-5.4h4.1v3.8H105c-1.4,0-1.8,1-1.8,2v1.9h4.4l-0.6,3.8h-3.8v11.6h-3.8V65.2H97.1z"/>
<path fill="#DC4B39" d="M20,0C9,0,0,9,0,20s9,20,20,20s20-9,20-20S31.1,0,20,0z M33.5,30h-3.4V15.6L20,21.8L9.9,15.6V30H6.6V10.4h2
	L20,17.3l11.4-6.9h2V30z"/>
</svg>
