<?xml version="1.0" encoding="utf-8"?>
<!-- Generator: Adobe Illustrator 18.0.0, SVG Export Plug-In . SVG Version: 6.00 Build 0)  -->
<!DOCTYPE svg PUBLIC "-//W3C//DTD SVG 1.1//EN" "http://www.w3.org/Graphics/SVG/1.1/DTD/svg11.dtd">
<svg version="1.1" id="Capa_1" xmlns="http://www.w3.org/2000/svg" xmlns:xlink="http://www.w3.org/1999/xlink" x="0px" y="0px"
	 viewBox="0 465.8 1080 988.3" enable-background="new 0 465.8 1080 988.3" xml:space="preserve">
<g>
	<g>
		<path fill="#EFEFEF" d="M89.2,646.7C38.2,646.7,0,608.5,0,557.5s38.2-91.7,89.2-91.7h899.2c50.9,0,91.7,40.8,91.7,91.7
			s-40.8,89.2-91.7,89.2H89.2z"/>
		<path fill="#EFEFEF" d="M988.3,868.3c50.9,0,91.7,40.8,91.7,91.7c0,50.9-40.8,89.2-91.7,89.2H89.2C38.2,1049.2,0,1010.9,0,960
			c0-50.9,38.2-91.7,89.2-91.7H988.3z"/>
		<path fill="#EFEFEF" d="M988.3,1273.3c50.9,0,91.7,38.2,91.7,89.2s-40.8,91.7-91.7,91.7H89.2c-50.9,0-89.2-40.8-89.2-91.7
			s38.2-89.2,89.2-89.2H988.3z"/>
	</g>
</g>
</svg>
