<?xml version="1.0" encoding="utf-8"?>
<!-- Generator: Adobe Illustrator 18.0.0, SVG Export Plug-In . SVG Version: 6.00 Build 0)  -->
<!DOCTYPE svg PUBLIC "-//W3C//DTD SVG 1.1//EN" "http://www.w3.org/Graphics/SVG/1.1/DTD/svg11.dtd">
<svg version="1.1" id="Capa_1" xmlns="http://www.w3.org/2000/svg" xmlns:xlink="http://www.w3.org/1999/xlink" x="0px" y="0px"
	 viewBox="0 80.3 512.5 352" enable-background="new 0 80.3 512.5 352" xml:space="preserve">
<g>
	<path fill="#FFB439" d="M400.3,303.3C338.5,303.7,288,253.9,287.6,192C287.1,130.2,337,79.7,398.8,79.3
		c61.9-0.4,112.3,49.4,112.8,111.2l0.6,16C513,330.2,413.4,431.2,289.7,432l-0.4-64c42.7-0.3,82.8-17.2,112.8-47.6
		c5.8-5.9,11-12.1,15.8-18.6C412.2,302.7,406.3,303.2,400.3,303.3z M112.3,305.2C50.5,305.6,0,255.8-0.4,194S49,81.6,110.8,81.2
		s112.3,49.4,112.8,111.2l0.6,16C225,332.2,125.4,433.1,1.7,434l-0.4-64c42.7-0.3,82.8-17.2,112.8-47.6c5.8-5.9,11-12.1,15.8-18.6
		C124.2,304.7,118.3,305.2,112.3,305.2z"/>
</g>
</svg>
