<?xml version="1.0" encoding="utf-8"?>
<!-- Generator: Adobe Illustrator 18.0.0, SVG Export Plug-In . SVG Version: 6.00 Build 0)  -->
<!DOCTYPE svg PUBLIC "-//W3C//DTD SVG 1.1//EN" "http://www.w3.org/Graphics/SVG/1.1/DTD/svg11.dtd">
<svg version="1.1" id="Capa_1" xmlns="http://www.w3.org/2000/svg" xmlns:xlink="http://www.w3.org/1999/xlink" x="0px" y="0px"
	 viewBox="0 80.3 512.5 352" enable-background="new 0 80.3 512.5 352" xml:space="preserve">
<g>
	<path fill="#FFB439" d="M112.4,208.6c61.9-0.2,112.1,49.9,112.3,111.7c0.2,61.9-49.9,112.1-111.7,112.3
		C51.1,432.8,0.8,382.8,0.7,320.9l-0.5-16C-0.2,181.2,99.8,80.6,223.6,80.3l0.2,64c-42.7,0.1-82.9,16.9-113,47.1
		c-5.8,5.8-11.1,12-15.9,18.6C100.5,209.1,106.4,208.6,112.4,208.6z M400.4,207.9c61.9-0.2,112.1,49.9,112.3,111.7
		s-49.9,112.1-111.7,112.3C339.1,432,288.8,382,288.7,320.2l-0.5-16c-0.3-123.7,99.7-224.3,223.4-224.6l0.2,64
		c-42.7,0.1-82.9,16.9-113,47.1c-5.8,5.8-11.1,12-15.9,18.6C388.5,208.4,394.4,207.9,400.4,207.9z"/>
</g>
</svg>
