<?xml version="1.0" encoding="utf-8"?>
<!-- Generator: Adobe Illustrator 18.0.0, SVG Export Plug-In . SVG Version: 6.00 Build 0)  -->
<!DOCTYPE svg PUBLIC "-//W3C//DTD SVG 1.1//EN" "http://www.w3.org/Graphics/SVG/1.1/DTD/svg11.dtd">
<svg version="1.1" id="Capa_1" xmlns="http://www.w3.org/2000/svg" xmlns:xlink="http://www.w3.org/1999/xlink" x="0px" y="0px"
	 viewBox="0 532.3 1080 930.1" enable-background="new 0 532.3 1080 930.1" xml:space="preserve">
<g>
	<g id="Layer_5_33_">
		<g>
			<path fill="#FFB439" d="M1009.6,794.3c0,0-146.9,0-190.5,0c-52.3,0-49-58.2-49-58.2V586.5c0-29.9-28-54.3-62.5-54.3H364.6
				c-34.4,0-62.5,24.3-62.5,54.3v149.6c0,0,8.4,58.2-58.1,58.2c-41.2,0-181.5,0-181.5,0C28,794.3,0,818.6,0,848.6v297.5
				c0,29.9,28,54.3,62.5,54.3c0,0,156.3,0,208.4,0c34.3,0,31.2,23.9,31.2,23.9v183.9c0,29.9,28,54.3,62.5,54.3h343
				c34.4,0,62.5-24.3,62.5-54.3v-181.2c0,0-5.3-26.6,33.3-26.6c51.6,0,206.3,0,206.3,0c34.4,0,62.5-24.3,62.5-54.3V848.6
				C1072.1,818.6,1044.1,794.3,1009.6,794.3z"/>
		</g>
	</g>
</g>
</svg>
