<?xml version="1.0" encoding="utf-8"?>
<!-- Generator: Adobe Illustrator 18.0.0, SVG Export Plug-In . SVG Version: 6.00 Build 0)  -->
<!DOCTYPE svg PUBLIC "-//W3C//DTD SVG 1.1//EN" "http://www.w3.org/Graphics/SVG/1.1/DTD/svg11.dtd">
<svg version="1.1" id="Capa_1" xmlns="http://www.w3.org/2000/svg" xmlns:xlink="http://www.w3.org/1999/xlink" x="0px" y="0px"
	 viewBox="0 37.2 535.9 461.4" enable-background="new 0 37.2 535.9 461.4" xml:space="preserve">
<g>
	<g>
		<path fill="#FFB439" d="M305.9,37.9C286,41.8,273,61,276.9,80.8c3.9,19.8,23.2,32.8,43,29c19.8-3.9,32.7-23.2,28.9-43
			C344.9,46.9,325.7,34,305.9,37.9z"/>
		<path fill="#FFB439" d="M86.1,78.6c-18.8,3.7-31.1,21.8-27.4,40.6c3.7,18.8,21.9,31.1,40.7,27.4c18.8-3.7,31-21.9,27.3-40.7
			C123,87.2,104.9,75,86.1,78.6z"/>
		<path fill="#FFB439" d="M505.2,350.8c-5.8-10.9-15.2-10.9-20.9,0.1l-3.1,5.8L440,88.6l-0.2-0.6c-1.5-4.3-6.3-6.7-10.7-5.1
			c-4,1.4-5.9,5.5-5.4,9.7l15.9,103.2l-52-2.8l-26.7-57.2c-4.5-9.6-16.7-17-27.3-16.5l-33.7,3c-10.6,0.5-19.5,9.6-19.8,20.2
			l-12.2,285.8c0,0.2,0.1,0.4,0.1,0.6c-2.8,0.4-5.6,0.9-7.9,1.7l-0.3,0.1l-46.8-304l-0.2-0.6c-1.4-4.1-5.9-6.3-10.1-4.9
			c-3.7,1.3-5.6,5.2-5.1,9.2l15,97.6l-49.2-2.6l-25.2-54.2c-4.2-9.1-15.8-16.1-25.9-15.6l-31.9,2.9c-10,0.5-18.5,9.1-18.8,19.1
			L50.2,448.1c0,1.7,0.2,3.3,0.6,4.9c0.3,1.4,0.7,2.8,1.2,4.1L40.8,453c-11.6-4.2-25.6,1.2-31.3,12.1l-7.2,13.8
			c-5.7,10.9-0.4,19.8,12,19.8h486c12.3,0,24.3-9.8,26.7-21.9l8-40c2.4-12.1-0.3-30.7-6.1-41.6L505.2,350.8z M133.9,438.1l-24,19.7
			c-4.7,3.9-11.3,6.5-18.1,7.7c3.9-4,6.5-9.2,7-14.8l5.9-140.7l62.3,120C156,428.2,142.1,431.4,133.9,438.1z M210.6,441.1
			c4.6-5.4,6.9-12.8,5.4-20.4c-0.4-1.8-0.9-3.5-1.6-5.2l-81.6-160.4l0.6-20.7l6.6,14.9c5.2,9.5,14.6,8.7,14.6,8.7l58.1,3.2
			c1.2,0,2.3-0.1,3.4-0.3c0.5-0.1,1-0.3,1.4-0.4l26.9,174.8l-10.6,3.3C227.5,440.7,218.9,441.4,210.6,441.1z M319.3,437.6l-1.3-0.5
			c0.7-2,1.2-4,1.4-6.1l6.3-148.7l61.6,118.7l-30.7,28.8C347.6,438.3,330.9,441.8,319.3,437.6z M436.5,384.2l-81.3-159.7l0.7-21.9
			l7,15.7c5.5,10.1,15.5,9.2,15.5,9.2l61.4,3.4c1.2,0,2.4-0.1,3.6-0.3c0.5-0.1,1-0.3,1.5-0.5l22.4,145.4c-6.8,5.2-15.3,8.6-22.9,8.6
			L436.5,384.2L436.5,384.2z"/>
	</g>
</g>
</svg>
