<?xml version="1.0" encoding="utf-8"?>
<!-- Generator: Adobe Illustrator 18.0.0, SVG Export Plug-In . SVG Version: 6.00 Build 0)  -->
<!DOCTYPE svg PUBLIC "-//W3C//DTD SVG 1.1//EN" "http://www.w3.org/Graphics/SVG/1.1/DTD/svg11.dtd">
<svg version="1.1" id="Layer_1" xmlns="http://www.w3.org/2000/svg" xmlns:xlink="http://www.w3.org/1999/xlink" x="0px" y="0px"
	 viewBox="0 0 40 40" enable-background="new 0 0 40 40" xml:space="preserve">
<g>
	<path fill="#4098FF" d="M20,0C9,0,0,9,0,20s9,20,20,20s20-9,20-20S31.1,0,20,0z M32.1,14.7c0,0.2,0,0.5,0,0.7
		c0,8.6-6.5,17.4-17.4,17.4c-3.3,0-6.6-0.9-9.4-2.7c-0.1,0-0.1-0.1-0.1-0.2c0-0.1,0.1-0.1,0.2-0.1c0.5,0.1,1,0.1,1.4,0.1
		c2.6,0,5-0.8,7.1-2.3c-2.5-0.2-4.6-1.9-5.4-4.3c0,0,0-0.1,0-0.1c0,0,0.1-0.1,0.1,0c0.7,0.1,1.4,0.1,2.1,0c-2.6-0.8-4.4-3.2-4.4-5.9
		l0-0.1c0-0.1,0-0.1,0.1-0.1c0,0,0.1,0,0.1,0c0.7,0.4,1.4,0.6,2.2,0.7c-1.5-1.2-2.3-3-2.3-4.9c0-1.1,0.3-2.2,0.8-3.1
		c0,0,0.1-0.1,0.1-0.1c0,0,0.1,0,0.1,0.1c3,3.7,7.4,6,12.2,6.3c-0.1-0.4-0.1-0.8-0.1-1.2c0-3.4,2.8-6.2,6.2-6.2
		c1.7,0,3.3,0.7,4.5,1.9c1.3-0.3,2.6-0.8,3.7-1.4c0.1,0,0.1,0,0.2,0c0,0,0.1,0.1,0,0.2c-0.4,1.2-1.2,2.3-2.2,3.1
		c1-0.2,1.9-0.5,2.8-0.8c0.1,0,0.1,0,0.2,0c0,0.1,0,0.1,0,0.2C34.3,12.8,33.3,13.8,32.1,14.7z"/>
</g>
<path fill="#3B5997" d="M122.5,65.2c0-11.1-9-20-20-20c-11.1,0-20,9-20,20c0,11.1,9,20,20,20C113.5,85.2,122.5,76.3,122.5,65.2z
	 M97.1,65.2v-3.8h2.3v-2.3c0-3.1,0.9-5.4,4.4-5.4h4.1v3.8H105c-1.4,0-1.8,1-1.8,2v1.9h4.4l-0.6,3.8h-3.8v11.6h-3.8V65.2H97.1z"/>
<path fill="#DC4B39" d="M79.4,3.9c-11.1,0-20,9-20,20s9,20,20,20s20-9,20-20S90.4,3.9,79.4,3.9z M92.8,33.9h-3.4V19.5l-10.1,6.2
	l-10.1-6.2v14.4h-3.4V14.3h2l11.4,6.9l11.4-6.9h2V33.9z"/>
</svg>
